<?xml version="1.0" encoding="UTF-8" standalone="no"?>
<!DOCTYPE svg PUBLIC "-//W3C//DTD SVG 1.1//EN" "http://www.w3.org/Graphics/SVG/1.1/DTD/svg11.dtd">
<svg width="100%" height="100%" viewBox="0 0 260 260" version="1.1" xmlns="http://www.w3.org/2000/svg" xmlns:xlink="http://www.w3.org/1999/xlink" xml:space="preserve" xmlns:serif="http://www.serif.com/" style="fill-rule:evenodd;clip-rule:evenodd;stroke-linecap:round;stroke-linejoin:round;stroke-miterlimit:1.5;">
    <g transform="matrix(1,0,0,1,-636,-41.5914)">
        <g id="Artboard3" transform="matrix(0.965608,0,0,1.00937,21.3693,-18.1911)">
            <rect x="636.522" y="59.228" width="269.261" height="257.587" style="fill:none;"/>
            <g id="paper" transform="matrix(1,0,0,1,0.825667,5.31474)">
                <g transform="matrix(1,0,0,1,138.495,-17.5583)">
                    <path d="M682.935,102.239L683.548,102.334L684.143,102.502L749.15,125.069L749.767,125.33L750.341,125.668L750.863,126.078L751.321,126.551L751.708,127.079L752.017,127.653L752.242,128.261L752.379,128.893L752.425,129.537L752.438,153.809L752.4,154.4L752.285,154.983L752.095,155.548L751.833,156.085L751.503,156.587L751.111,157.046L719.283,189.845L719.21,201.202L719.167,201.8L719.045,202.388L718.847,202.957L718.575,203.498L718.235,204.001L717.831,204.46L632.254,290.017L631.769,290.442L631.23,290.802L630.646,291.09L630.027,291.302L629.384,291.435L628.729,291.485L628.072,291.451L627.426,291.336L615.493,288.405L614.886,288.215L614.31,287.953L613.774,287.622L613.287,287.229L612.856,286.779L612.489,286.28L612.191,285.74L611.422,284.095L598.363,296.881L597.916,297.269L597.422,297.603L596.89,297.876L596.326,298.086L595.741,298.229L595.141,298.303L594.537,298.306L593.937,298.24L593.349,298.104L578.074,293.619L577.508,293.417L576.972,293.149L576.474,292.822L576.021,292.44L575.62,292.007L575.277,291.532L574.997,291.019L574.783,290.479L574.64,289.917L573.967,286.348L564.33,295.134L563.862,295.511L563.349,295.83L562.798,296.086L562.219,296.276L561.62,296.396L561.01,296.445L560.398,296.422L559.794,296.327L559.207,296.162L540.778,289.771L540.199,289.529L539.657,289.22L539.161,288.847L538.718,288.417L538.335,287.936L538.019,287.413L537.775,286.856L537.607,286.274L536.658,281.94L536.18,282.227L535.643,282.469L535.08,282.648L534.498,282.762L533.906,282.808L533.313,282.787L532.726,282.698L532.155,282.543L514.555,276.654L513.986,276.425L513.452,276.13L512.959,275.774L512.516,275.362L512.131,274.901L511.808,274.398L511.552,273.861L511.368,273.297L511.259,272.716L511.226,272.126L511.381,254.293L511.425,253.696L511.548,253.108L511.747,252.54L512.019,252L512.36,251.498L512.765,251.04L584.135,179.879L574.868,176.61L574.305,176.373L573.776,176.07L573.291,175.707L572.856,175.29L572.479,174.825L572.164,174.318L571.918,173.778L571.743,173.213L571.643,172.632L571.618,172.043L572.042,153.66L572.096,153.061L572.228,152.474L572.437,151.907L572.718,151.37L573.068,150.871L573.481,150.418L606.018,119.011L606.511,118.594L607.057,118.244L607.647,117.965L608.27,117.763L608.916,117.642L609.572,117.603L663.759,117.855L678.966,103.578L679.435,103.189L679.951,102.86L680.506,102.594L681.091,102.397L681.697,102.271L682.315,102.218L682.935,102.239ZM665.781,122.62L609.548,122.359L577.012,153.765L576.588,172.148L592.979,177.93L516.352,254.333L516.196,272.165L533.796,278.054L539.965,273.843L542.472,285.3L560.901,291.691L577.221,276.813L579.532,289.073L594.808,293.558L612.976,275.769L616.729,283.798L628.663,286.73L714.239,201.172L714.324,187.966L747.467,153.811L747.454,129.54L682.448,106.972L665.781,122.62Z"/>
                </g>
                <g transform="matrix(1,0,0,1,138.495,-17.5583)">
                    <path d="M621.896,147.784L588.472,180.163" style="fill:none;stroke:black;stroke-width:3.14px;"/>
                </g>
                <g transform="matrix(1,0,0,1,138.495,-17.5583)">
                    <path d="M591.475,218.287L541.861,268.684L541.208,284.351" style="fill:none;stroke:black;stroke-width:3.14px;"/>
                </g>
                <g transform="matrix(1,0,0,1,138.495,-17.5583)">
                    <path d="M578.027,288.138L578.549,271.295L621.504,228.21" style="fill:none;stroke:black;stroke-width:3.14px;"/>
                </g>
                <g transform="matrix(1,0,0,1,138.495,-17.5583)">
                    <path d="M648.138,237.219L615.498,270.773L614.584,284.482" style="fill:none;stroke:black;stroke-width:3.14px;"/>
                </g>
                <g transform="matrix(1,0,0,1,138.495,-17.5583)">
                    <path d="M715.9,198.311L715.378,174.549" style="fill:none;stroke:black;stroke-width:3.14px;"/>
                </g>
            </g>
        </g>
    </g>
</svg>
