<?xml version="1.0" encoding="UTF-8" standalone="no"?>
<!DOCTYPE svg PUBLIC "-//W3C//DTD SVG 1.1//EN" "http://www.w3.org/Graphics/SVG/1.1/DTD/svg11.dtd">
<svg width="100%" height="100%" viewBox="0 0 260 260" version="1.1" xmlns="http://www.w3.org/2000/svg" xmlns:xlink="http://www.w3.org/1999/xlink" xml:space="preserve" xmlns:serif="http://www.serif.com/" style="fill-rule:evenodd;clip-rule:evenodd;stroke-linecap:round;stroke-linejoin:round;stroke-miterlimit:1.5;">
    <g id="Artboard1" transform="matrix(1.14811,0,0,1.22831,-15.7578,-105.111)">
        <rect x="13.725" y="85.574" width="226.459" height="211.673" style="fill:none;"/>
        <g id="fist" transform="matrix(0.870996,0,0,0.814127,2.40201,16.3732)">
            <g transform="matrix(1,0,0,1,17.0952,22.4939)">
                <path d="M180.683,101.922L181.216,102.011L181.736,102.158L182.236,102.363L182.71,102.622L183.152,102.932L183.557,103.29L223.877,143.124L224.242,143.528L224.559,143.971L224.825,144.446L225.036,144.948L225.189,145.47L225.282,146.007L225.314,146.55L225.398,171.941L225.368,172.493L225.276,173.038L225.122,173.569L224.908,174.079L224.638,174.561L224.314,175.009L223.942,175.417L192.182,206.464L192.119,218.876L192.086,219.412L191.994,219.942L191.844,220.457L191.638,220.953L191.378,221.424L191.068,221.862L190.711,222.263L131.609,281.692L131.166,282.086L130.679,282.423L130.153,282.698L129.598,282.906L129.022,283.045L128.433,283.112L127.84,283.107L127.253,283.03L126.679,282.881L60.708,261.378L60.153,261.158L59.629,260.871L59.144,260.522L58.706,260.116L58.321,259.66L57.996,259.159L57.734,258.622L57.541,258.057L57.419,257.472L57.37,256.877L57.177,247.507L52.608,244.384L52.142,244.022L51.724,243.607L51.36,243.144L51.055,242.639L50.813,242.102L50.638,241.539L50.533,240.959L50.499,240.37L50.549,227.672L45.935,224.618L45.457,224.258L45.028,223.841L44.653,223.375L44.339,222.865L44.089,222.321L43.909,221.751L43.801,221.162L43.766,220.565L43.834,202.67L39.089,200.116L38.606,199.817L38.16,199.465L37.76,199.062L37.409,198.615L37.113,198.131L36.875,197.614L36.7,197.074L36.59,196.517L36.545,195.95L36.454,191.341L29.228,188.018L28.737,187.757L28.28,187.441L27.861,187.076L27.488,186.664L27.164,186.213L26.894,185.727L26.681,185.214L26.528,184.679L26.438,184.131L26.412,183.576L26.573,166.593L26.608,166.057L26.703,165.527L26.855,165.012L27.064,164.516L27.326,164.047L27.639,163.609L27.999,163.21L61.85,129.519L62.254,129.159L62.696,128.847L63.17,128.586L63.67,128.379L64.19,128.23L64.724,128.14L65.264,128.11L127.797,128.126L151.421,103.456L151.828,103.077L152.276,102.748L152.758,102.472L153.269,102.253L153.801,102.094L154.348,101.997L154.903,101.964L180.143,101.893L180.683,101.922ZM154.916,106.802L129.863,132.965L65.263,132.949L31.412,166.639L31.25,183.622L41.232,188.213L41.383,195.855L48.683,199.785L48.605,220.583L55.398,225.079L55.338,240.389L61.964,244.917L62.208,256.777L128.179,278.28L187.28,218.851L187.354,204.418L220.559,171.957L220.476,146.566L180.157,106.732L154.916,106.802Z"/>
            </g>
            <g transform="matrix(1,0,0,1,17.0952,22.4939)">
                <path d="M100.616,163.032L61.009,150.122L41.122,170.051L40.203,188.852" style="fill:none;stroke:black;stroke-width:3.06px;"/>
            </g>
            <g transform="matrix(1,0,0,1,17.0952,22.4939)">
                <path d="M64.623,178.031L100.846,189.625L114.571,175.942L114.404,149.244" style="fill:none;stroke:black;stroke-width:3.06px;"/>
            </g>
            <g transform="matrix(1,0,0,1,17.0952,22.4939)">
                <path d="M43.545,196.957L113.986,221.356" style="fill:none;stroke:black;stroke-width:3.06px;"/>
            </g>
            <g transform="matrix(1,0,0,1,17.0952,22.4939)">
                <path d="M50.021,221.586L114.153,243.207" style="fill:none;stroke:black;stroke-width:3.06px;"/>
            </g>
            <g transform="matrix(1,0,0,1,17.0952,22.4939)">
                <path d="M56.288,241.536L113.422,260.859" style="fill:none;stroke:black;stroke-width:3.06px;"/>
            </g>
            <g transform="matrix(1,0,0,1,17.0952,22.4939)">
                <path d="M188.416,220.646L188.208,191.609" style="fill:none;stroke:black;stroke-width:3.06px;"/>
            </g>
            <g transform="matrix(1,0,0,1,17.0952,22.4939)">
                <path d="M126.373,131.551L141.101,132.177" style="fill:none;stroke:black;stroke-width:3.06px;"/>
            </g>
        </g>
    </g>
</svg>
