<?xml version="1.0" encoding="UTF-8" standalone="no"?>
<!DOCTYPE svg PUBLIC "-//W3C//DTD SVG 1.1//EN" "http://www.w3.org/Graphics/SVG/1.1/DTD/svg11.dtd">
<svg width="100%" height="100%" viewBox="0 0 260 260" version="1.1" xmlns="http://www.w3.org/2000/svg" xmlns:xlink="http://www.w3.org/1999/xlink" xml:space="preserve" xmlns:serif="http://www.serif.com/" style="fill-rule:evenodd;clip-rule:evenodd;stroke-linecap:round;stroke-linejoin:round;stroke-miterlimit:1.5;">
    <g transform="matrix(1,0,0,1,-303.926,-121.891)">
        <g id="Artboard2" transform="matrix(0.971222,0,0,1.06401,73.4545,209.051)">
            <rect x="237.301" y="-81.916" width="267.704" height="244.358" style="fill:none;"/>
            <g id="scissors" transform="matrix(1.02963,0,0,0.939838,-8.22203,-150.858)">
                <path d="M441.52,102.021L442.143,102.065L442.755,102.19L443.345,102.394L443.904,102.672L444.423,103.021L444.891,103.434L484.386,143.092L484.795,143.559L485.14,144.076L485.416,144.632L485.617,145.22L485.741,145.828L485.785,146.448L485.948,171.744L485.911,172.376L485.79,172.998L485.589,173.598L485.31,174.166L484.96,174.693L484.542,175.169L452.655,207.057L452.655,218.778L452.613,219.412L452.487,220.035L452.281,220.636L451.996,221.204L451.64,221.73L451.216,222.204L391.158,281.12L390.665,281.542L390.12,281.894L389.533,282.169L388.913,282.362L388.274,282.47L387.626,282.491L386.98,282.424L386.35,282.271L345.214,269.272L310.716,303.462L310.276,303.848L309.791,304.178L309.27,304.446L308.72,304.649L308.149,304.783L307.566,304.847L306.98,304.839L306.399,304.76L305.832,304.61L288.043,298.735L287.49,298.513L286.969,298.225L286.487,297.874L286.053,297.466L285.672,297.008L285.351,296.506L285.095,295.968L284.908,295.402L284.792,294.818L284.749,294.224L284.586,277.414L284.62,276.794L284.734,276.183L284.925,275.593L285.192,275.032L285.528,274.51L285.929,274.036L313.692,245.235L311.253,241.787L310.95,241.299L310.707,240.778L310.528,240.232L310.416,239.669L310.372,239.097L310.153,226.26L276.347,235.958L275.782,236.084L275.205,236.141L274.626,236.128L274.053,236.045L273.494,235.894L254.562,229.529L253.956,229.278L253.39,228.947L252.874,228.541L252.419,228.069L252.032,227.539L251.721,226.962L251.491,226.347L251.348,225.707L251.293,225.053L250.966,203.837L250.995,203.23L251.101,202.632L251.281,202.052L251.533,201.5L251.852,200.983L252.235,200.511L252.674,200.092L253.162,199.73L253.692,199.434L254.255,199.207L311.056,180.376L311.188,165.856L311.234,165.234L311.361,164.622L311.566,164.032L311.846,163.474L312.196,162.957L312.61,162.489L346.23,129.196L346.698,128.789L347.215,128.445L347.772,128.171L348.36,127.972L348.968,127.849L349.588,127.807L388.194,127.652L411.592,103.33L412.072,102.894L412.606,102.527L413.185,102.235L413.798,102.024L414.434,101.897L415.081,101.858L441.52,102.021ZM390.244,132.443L349.607,132.607L315.987,165.9L315.824,183.852L255.766,203.763L256.092,224.979L275.024,231.344L314.845,219.92L315.171,239.015L319.904,245.706L289.385,277.367L289.549,294.177L307.338,300.052L343.895,263.821L387.796,277.694L447.855,218.778L447.855,205.069L481.148,171.775L480.985,146.479L441.49,106.821L415.051,106.657L390.244,132.443Z"/>
                <path d="M384.532,130.975L402.811,131.954" style="fill:none;stroke:black;stroke-width:3.1px;"/>
                <path d="M361.684,153.823L361.358,166.553L309.622,184.179" style="fill:none;stroke:black;stroke-width:3.1px;"/>
                <path d="M304.074,224.163C304.074,224.163 342.418,208.92 350.749,207.027C353.407,206.423 355.477,207.692 353.687,211.27C352.479,213.686 341.873,222.655 341.873,222.655L338.183,221.878L340.468,224L316.803,246.848" style="fill:none;stroke:black;stroke-width:3.1px;"/>
                <path d="M374.903,234.119L343.732,266.759" style="fill:none;stroke:black;stroke-width:3.1px;"/>
                <path d="M375.719,261.21L355.809,253.54" style="fill:none;stroke:black;stroke-width:3.1px;"/>
                <path d="M449.813,212.739L449.324,191.849" style="fill:none;stroke:black;stroke-width:3.1px;"/>
            </g>
        </g>
    </g>
</svg>
